#!OML:ASF X:\für Bonn\!DataBase\2005_08_12_Daniel\c3d\Daniel.ASF
:FULLY-SPECIFIED
:DEGREES
107
root -23.0612 16.3876 -21.9476 0.67032 45.131 -720.454
lowerback 39.801 3.2432 -2.50511
upperback 10.5145 3.24056 -4.73729
thorax -7.39931 1.93979 -5.06783
lowerneck -4.91632 -1.7033 -6.14767
upperneck -5.36958 -1.90441 1.90402
head -0.765008 -0.824628 1.61502
rclavicle 1.74931e-014 1.98785e-014
rhumerus -20.9878 11.246 -93.1833
rradius 55.5487
rwrist 0.926999
rhand -25.5047 24.7399
rfingers 7.12502
rthumb 1.02415 -5.23742
lclavicle 1.74931e-014 1.98785e-014
lhumerus -19.1859 35.7464 75.7716
lradius 24.3049
lwrist -29.5068
lhand -15.5669 -5.87477
lfingers 7.12502
lthumb 10.6179 23.837
rfemur 4.67045 8.08513 21.1563
rtibia 53.8817
rfoot 3.29152 7.00347
rtoes -4.65327
lfemur -43.4854 -5.10544 -19.6051
ltibia 64.035
lfoot -20.0602 -6.19036
ltoes -6.80328
108
root -22.9792 16.396 -21.8941 0.644158 45.0961 -720.477
lowerback 39.864 3.22041 -2.54182
upperback 10.492 3.1902 -4.76224
thorax -7.44742 1.9155 -5.05977
lowerneck -4.94223 -1.69228 -6.2075
upperneck -5.3155 -1.8839 1.97299
head -0.743438 -0.814745 1.64755
rclavicle 1.98785e-014 5.40694e-014
rhumerus -21.0664 11.1281 -93.2267
rradius 55.3161
rwrist 0.98614
rhand -25.4983 24.6572
rfingers 7.12502
rthumb 1.03035 -5.32007
lclavicle 1.98785e-014 5.40694e-014
lhumerus -18.8546 35.2483 76.0938
lradius 24.5373
lwrist -29.1786
lhand -15.5018 -5.90687
lfingers 7.12502
lthumb 10.6808 23.8016
rfemur 3.97503 7.66941 20.8882
rtibia 55.0288
rfoot 4.4976 6.80231
rtoes -5.12549
lfemur -43.1326 -5.26525 -19.6947
ltibia 64.1504
lfoot -20.515 -5.99521
ltoes -6.87369
109
root -22.8978 16.4053 -21.8412 0.604815 45.048 -720.478
lowerback 39.9357 3.20266 -2.59256
upperback 10.48 3.1409 -4.79316
thorax -7.48653 1.89251 -5.05111
lowerneck -4.9336 -1.68717 -6.24949
upperneck -5.29413 -1.87448 2.04266
head -0.737602 -0.81032 1.67765
rclavicle -3.4191e-014 1.66979e-014
rhumerus -21.1564 11.0573 -93.258
rradius 55.142
rwrist 1.00538
rhand -25.475 24.5133
rfingers 7.12502
rthumb 1.05279 -5.46387
lclavicle -3.4191e-014 1.66979e-014
lhumerus -18.5179 34.7449 76.4116
lradius 24.7829
lwrist -28.7906
lhand -15.4623 -6.07101
lfingers 7.12502
lthumb 10.7189 23.6355
rfemur 3.23078 7.26297 20.5946
rtibia 56.2775
rfoot 5.57366 6.64921
rtoes -5.56547
lfemur -42.7165 -5.41709 -19.8026
ltibia 64.2294
lfoot -20.9761 -5.78096
ltoes -6.85444
110
root -22.8168 16.4144 -21.789 0.535224 45.0113 -720.48
lowerback 40.0121 3.16531 -2.63234
upperback 10.489 3.0753 -4.81205
thorax -7.50483 1.86263 -5.02787
lowerneck -4.97413 -1.67217 -6.3459
upperneck -5.25093 -1.8453 2.13341
head -0.716925 -0.795166 1.72394
rclavicle 2.94201e-014 4.53229e-014
rhumerus -21.2545 10.9898 -93.2704
rradius 54.9753
rwrist 1.05849
rhand -25.4537 24.3579
rfingers 7.12502
rthumb 1.07336 -5.61915
lclavicle 2.94201e-014 4.53229e-014
lhumerus -18.1472 34.3401 76.7564
lradius 25.0028
lwrist -28.4149
lhand -15.3874 -6.22848
lfingers 7.12502
lthumb 10.7911 23.4743
rfemur 2.44502 6.79612 20.2811
rtibia 57.5951
rfoot 6.51171 6.58777
rtoes -6.21214
lfemur -42.2621 -5.58231 -19.9167
ltibia 64.2883
lfoot -21.4282 -5.58865
ltoes -6.95465
111
root -22.736 16.4235 -21.7365 0.395488 44.9624 -720.484
lowerback 40.1463 3.13353 -2.64984
upperback 10.5063 3.02258 -4.84493
thorax -7.53008 1.84028 -5.03844
lowerneck -5.02418 -1.66567 -6.416
upperneck -5.19363 -1.82797 2.22991
head -0.689823 -0.786702 1.7672
rclavicle -3.65764e-014 9.62118e-014
rhumerus -21.3772 10.8856 -93.2955
rradius 54.8266
rwrist 1.04402
rhand -25.4317 24.2276
rfingers 7.12502
rthumb 1.09459 -5.7493
lclavicle -3.65764e-014 9.62118e-014
lhumerus -17.7494 33.8863 77.0871
lradius 25.2231
lwrist -28.0716
lhand -15.2897 -6.43232
lfingers 7.12502
lthumb 10.8853 23.2655
rfemur 1.69983 6.36024 20.0013
rtibia 58.9346
rfoot 7.25431 6.58457
rtoes -6.90232
lfemur -41.7121 -5.74259 -20.0366
ltibia 64.3261
lfoot -21.8699 -5.36318
ltoes -6.89375
